<svg 
 xmlns="http://www.w3.org/2000/svg"
 xmlns:xlink="http://www.w3.org/1999/xlink"
 width="24px" height="23px">
<defs>
<filter filterUnits="userSpaceOnUse" id="Filter_0" x="0px" y="0px" width="24px" height="23px"  >
    <feOffset in="SourceAlpha" dx="0" dy="1" />
    <feGaussianBlur result="blurOut" stdDeviation="0" />
    <feFlood flood-color="rgb(220, 61, 102)" result="floodOut" />
    <feComposite operator="atop" in="floodOut" in2="blurOut" />
    <feComponentTransfer><feFuncA type="linear" slope="0.75"/></feComponentTransfer>
    <feMerge>
    <feMergeNode/>
    <feMergeNode in="SourceGraphic"/>
  </feMerge>
</filter>

</defs>
<g filter="url(#Filter_0)">
<path fill-rule="evenodd"  fill="rgb(255, 255, 255)"
 d="M23.144,11.759 L21.421,11.759 C20.945,11.759 20.559,11.373 20.559,10.897 C20.559,10.421 20.945,10.035 21.421,10.035 L23.144,10.035 C23.621,10.035 24.006,10.421 24.006,10.897 C24.006,11.373 23.621,11.759 23.144,11.759 ZM19.758,6.021 C19.421,6.358 18.876,6.358 18.539,6.021 C18.202,5.685 18.202,5.139 18.539,4.802 L19.758,3.583 C20.095,3.247 20.640,3.247 20.977,3.583 C21.313,3.920 21.313,4.466 20.977,4.802 L19.758,6.021 ZM18.488,12.748 L18.488,12.748 C19.241,13.647 19.697,14.804 19.697,16.069 C19.697,18.925 17.381,21.241 14.525,21.241 C13.329,21.241 9.007,21.241 7.629,21.241 C3.821,21.241 0.734,18.153 0.734,14.345 C0.734,10.537 3.821,7.449 7.629,7.449 C8.307,7.449 8.961,7.549 9.579,7.732 C10.525,6.513 12.000,5.725 13.663,5.725 C16.519,5.725 18.835,8.041 18.835,10.897 C18.835,11.550 18.709,12.173 18.488,12.748 ZM2.457,14.345 C2.457,17.201 4.773,19.517 7.629,19.517 C9.188,19.517 13.223,19.517 14.525,19.517 C16.429,19.517 17.973,17.973 17.973,16.069 C17.973,14.165 16.429,12.621 14.525,12.621 C13.835,12.621 13.196,12.829 12.657,13.177 C12.126,10.886 10.082,9.173 7.629,9.173 C4.773,9.173 2.457,11.489 2.457,14.345 ZM13.663,7.449 C12.709,7.449 11.846,7.837 11.222,8.462 C12.231,9.081 13.069,9.950 13.648,10.985 C13.935,10.936 14.225,10.897 14.525,10.897 C15.441,10.897 16.300,11.138 17.046,11.555 L17.046,11.555 C17.088,11.342 17.111,11.122 17.111,10.897 C17.111,8.993 15.567,7.449 13.663,7.449 ZM13.663,4.001 C13.187,4.001 12.801,3.616 12.801,3.140 L12.801,1.416 C12.801,0.940 13.187,0.554 13.663,0.554 C14.139,0.554 14.525,0.940 14.525,1.416 L14.525,3.140 C14.525,3.616 14.139,4.001 13.663,4.001 ZM7.568,6.021 L6.349,4.802 C6.012,4.466 6.012,3.920 6.349,3.583 C6.686,3.247 7.231,3.247 7.568,3.583 L8.787,4.802 C9.124,5.139 9.124,5.685 8.787,6.021 C8.450,6.358 7.905,6.358 7.568,6.021 Z"/>
</g>
</svg>