<svg
  xmlns="http://www.w3.org/2000/svg"
  xmlns:xlink="http://www.w3.org/1999/xlink"
  width="87px"
      height="78px"
>
  <defs>
    <filter
      filterUnits="userSpaceOnUse"
      id="Filter_0"
      x="0px"
      y="0px"
      width="87px"
      height="78px"
    >
      <feOffset in="SourceAlpha" dx="0" dy="1" />
      <feGaussianBlur result="blurOut" stdDeviation="0" />
      <feFlood flood-color="rgb(97, 57, 246)" result="floodOut" />
      <feComposite operator="atop" in="floodOut" in2="blurOut" />
      <feComponentTransfer>
        <feFuncA type="linear" slope="0.75" />
      </feComponentTransfer>
      <feMerge>
        <feMergeNode />
        <feMergeNode in="SourceGraphic" />
      </feMerge>
    </filter>
  </defs>
  <g filter="url(#Filter_0)">
    <path
      fill-rule="evenodd"
      fill="rgb(255, 255, 255)"
      d="M83.113,41.524 L76.745,41.524 C74.987,41.524 73.562,40.099 73.562,38.340 C73.562,36.582 74.987,35.157 76.745,35.157 L83.113,35.157 C84.872,35.157 86.297,36.582 86.297,38.340 C86.297,40.099 84.872,41.524 83.113,41.524 ZM70.604,20.330 C69.361,21.573 67.345,21.573 66.101,20.330 C64.858,19.086 64.858,17.070 66.101,15.827 L70.604,11.324 C71.847,10.081 73.863,10.081 75.107,11.324 C76.350,12.568 76.350,14.584 75.107,15.827 L70.604,20.330 ZM65.912,45.178 L65.912,45.178 C68.696,48.497 70.378,52.772 70.378,57.444 C70.378,67.994 61.825,76.547 51.275,76.547 C46.855,76.547 30.893,76.547 25.804,76.547 C11.737,76.547 0.333,65.143 0.333,51.076 C0.333,37.009 11.737,25.605 25.804,25.605 C28.307,25.605 30.722,25.975 33.006,26.649 C36.501,22.146 41.950,19.237 48.091,19.237 C58.641,19.237 67.194,27.790 67.194,38.340 C67.194,40.753 66.728,43.052 65.912,45.178 ZM6.701,51.076 C6.701,61.626 15.253,70.179 25.804,70.179 C31.561,70.179 46.467,70.179 51.275,70.179 C58.308,70.179 64.010,64.477 64.010,57.444 C64.010,50.410 58.308,44.708 51.275,44.708 C48.727,44.708 46.366,45.475 44.375,46.763 C42.414,38.298 34.865,31.973 25.804,31.973 C15.253,31.973 6.701,40.525 6.701,51.076 ZM48.091,25.605 C44.568,25.605 41.381,27.035 39.075,29.347 C42.801,31.631 45.899,34.843 48.037,38.667 C49.095,38.485 50.166,38.340 51.275,38.340 C54.658,38.340 57.831,39.229 60.588,40.772 L60.588,40.772 C60.740,39.984 60.826,39.173 60.826,38.340 C60.826,31.307 55.124,25.605 48.091,25.605 ZM48.091,12.870 C46.332,12.870 44.907,11.444 44.907,9.686 L44.907,3.318 C44.907,1.560 46.332,0.134 48.091,0.134 C49.849,0.134 51.275,1.560 51.275,3.318 L51.275,9.686 C51.275,11.444 49.849,12.870 48.091,12.870 ZM25.577,20.330 L21.075,15.827 C19.831,14.584 19.831,12.568 21.075,11.324 C22.318,10.081 24.334,10.081 25.577,11.324 L30.080,15.827 C31.323,17.070 31.323,19.086 30.080,20.330 C28.837,21.573 26.821,21.573 25.577,20.330 Z"
    />
  </g>
</svg>
