<svg 
 xmlns="http://www.w3.org/2000/svg"
 xmlns:xlink="http://www.w3.org/1999/xlink"
  width="63px" height="66px">
<defs>
<filter filterUnits="userSpaceOnUse" id="Filter_0" x="0px" y="0px" width="63px" height="66px"  >
    <feOffset in="SourceAlpha" dx="0" dy="1" />
    <feGaussianBlur result="blurOut" stdDeviation="0" />
    <feFlood flood-color="rgb(220, 61, 102)" result="floodOut" />
    <feComposite operator="atop" in="floodOut" in2="blurOut" />
    <feComponentTransfer><feFuncA type="linear" slope="0.75"/></feComponentTransfer>
    <feMerge>
    <feMergeNode/>
    <feMergeNode in="SourceGraphic"/>
  </feMerge>
</filter>

</defs>
<g filter="url(#Filter_0)">
<path fill-rule="evenodd"  fill="rgb(255, 255, 255)"
 d="M56.713,50.154 L56.713,50.214 L55.848,50.214 L52.389,50.214 C51.116,50.214 50.083,49.182 50.083,47.908 C50.083,46.635 51.116,45.602 52.389,45.602 L55.848,45.602 C57.122,45.602 58.154,44.570 58.154,43.296 C58.154,42.023 57.122,40.990 55.848,40.990 C54.575,40.990 53.542,39.958 53.542,38.684 C53.542,37.411 54.575,36.378 55.848,36.378 C56.008,36.378 56.163,36.394 56.313,36.425 C59.913,36.668 62.766,39.635 62.766,43.296 C62.766,46.823 60.125,49.728 56.713,50.154 ZM50.417,27.154 L50.428,27.154 C50.673,27.848 50.872,28.564 51.005,29.303 C49.398,28.155 47.488,27.405 45.414,27.210 C45.403,27.190 45.389,27.173 45.377,27.154 L45.380,27.154 C43.785,24.400 40.813,22.542 37.400,22.542 C35.555,22.542 33.845,23.097 32.403,24.031 C30.983,17.900 25.515,13.318 18.952,13.318 C11.311,13.318 5.116,19.513 5.116,27.154 L5.116,27.154 C5.116,34.796 11.311,40.990 18.952,40.990 C21.948,40.990 28.353,40.990 33.020,40.990 L44.318,40.990 C45.592,40.990 46.624,39.958 46.624,38.684 C46.624,37.411 45.592,36.378 44.318,36.378 C43.045,36.378 42.012,35.346 42.012,34.072 C42.012,32.799 43.045,31.766 44.318,31.766 C44.478,31.766 44.633,31.782 44.783,31.813 C48.383,32.056 51.236,35.023 51.236,38.684 C51.236,42.211 48.595,45.116 45.183,45.542 L45.183,45.602 L44.318,45.602 L35.110,45.602 C30.484,45.602 22.012,45.602 18.952,45.602 C17.679,45.602 16.646,46.635 16.646,47.908 C16.646,49.182 17.679,50.214 18.952,50.214 L44.318,50.214 L45.183,50.214 L45.183,50.274 C48.595,50.700 51.236,53.605 51.236,57.132 C51.236,60.794 48.383,63.760 44.783,64.003 C44.633,64.034 44.478,64.050 44.318,64.050 C43.045,64.050 42.012,63.018 42.012,61.744 C42.012,60.471 43.045,59.438 44.318,59.438 C45.592,59.438 46.624,58.406 46.624,57.132 C46.624,55.859 45.592,54.826 44.318,54.826 L18.952,54.826 L18.088,54.826 L18.088,54.767 C14.676,54.340 12.034,51.435 12.034,47.908 C12.034,46.691 12.373,45.564 12.926,44.575 C5.701,42.075 0.504,35.229 0.504,27.154 C0.504,16.966 8.764,8.706 18.952,8.706 C21.261,8.706 23.466,9.139 25.501,9.914 C27.387,4.515 32.511,0.635 38.553,0.635 C39.424,0.635 40.273,0.725 41.099,0.879 C40.947,1.543 40.859,2.231 40.859,2.941 C40.859,8.035 44.989,12.165 50.083,12.165 C50.793,12.165 51.482,12.077 52.145,11.926 C52.299,12.752 52.389,13.600 52.389,14.471 C52.389,18.085 50.992,21.365 48.723,23.830 C49.435,24.843 49.994,25.967 50.417,27.154 ZM36.491,5.487 C33.147,6.252 30.525,8.842 29.660,12.145 L29.660,12.145 C31.871,13.728 33.722,15.782 35.056,18.167 C35.821,18.035 36.597,17.930 37.400,17.930 C40.419,17.930 43.204,18.908 45.478,20.549 C46.468,19.419 47.191,18.049 47.538,16.533 C41.940,15.491 37.534,11.084 36.491,5.487 Z"/>
</g>
</svg>