<svg 
 xmlns="http://www.w3.org/2000/svg"
 xmlns:xlink="http://www.w3.org/1999/xlink"
 width="81px" height="75px">
<defs>
<filter filterUnits="userSpaceOnUse" id="Filter_0" x="0px" y="0px" width="81px" height="75px"  >
    <feOffset in="SourceAlpha" dx="0" dy="1" />
    <feGaussianBlur result="blurOut" stdDeviation="0" />
    <feFlood flood-color="rgb(77, 209, 132)" result="floodOut" />
    <feComposite operator="atop" in="floodOut" in2="blurOut" />
    <feComponentTransfer><feFuncA type="linear" slope="0.75"/></feComponentTransfer>
    <feMerge>
    <feMergeNode/>
    <feMergeNode in="SourceGraphic"/>
  </feMerge>
</filter>

</defs>
<g filter="url(#Filter_0)">
<path fill-rule="evenodd"  fill="rgb(255, 255, 255)"
 d="M77.253,59.006 L3.720,59.006 C1.689,59.006 0.043,57.360 0.043,55.330 C0.043,53.299 1.689,51.653 3.720,51.653 L77.253,51.653 C79.283,51.653 80.929,53.299 80.929,55.330 C80.929,57.360 79.283,59.006 77.253,59.006 ZM77.253,44.300 L3.720,44.300 C1.689,44.300 0.043,42.654 0.043,40.623 C0.043,38.593 1.689,36.946 3.720,36.946 L77.253,36.946 C79.283,36.946 80.929,38.593 80.929,40.623 C80.929,42.654 79.283,44.300 77.253,44.300 ZM58.869,22.240 C55.927,22.240 53.201,23.125 50.902,24.613 C48.637,14.838 39.920,7.533 29.456,7.533 C17.273,7.533 7.396,17.410 7.396,29.593 L0.043,29.593 C0.043,13.349 13.212,0.180 29.456,0.180 C40.495,0.180 50.100,6.269 55.131,15.263 C56.352,15.054 57.589,14.887 58.869,14.887 C68.470,14.887 76.616,21.031 79.647,29.593 L71.593,29.593 C69.049,25.202 64.310,22.240 58.869,22.240 ZM3.720,66.360 L77.253,66.360 C79.283,66.360 80.929,68.006 80.929,70.036 C80.929,72.067 79.283,73.713 77.253,73.713 L3.720,73.713 C1.689,73.713 0.043,72.067 0.043,70.036 C0.043,68.006 1.689,66.360 3.720,66.360 Z"/>
</g>
</svg>