<svg 
 xmlns="http://www.w3.org/2000/svg"
 xmlns:xlink="http://www.w3.org/1999/xlink"
 width="86px" height="89px">
<defs>
<filter filterUnits="userSpaceOnUse" id="Filter_0" x="0px" y="0px" width="86px" height="89px"  >
    <feOffset in="SourceAlpha" dx="0" dy="1" />
    <feGaussianBlur result="blurOut" stdDeviation="0" />
    <feFlood flood-color="rgb(227, 182, 61)" result="floodOut" />
    <feComposite operator="atop" in="floodOut" in2="blurOut" />
    <feComponentTransfer><feFuncA type="linear" slope="0.75"/></feComponentTransfer>
    <feMerge>
    <feMergeNode/>
    <feMergeNode in="SourceGraphic"/>
  </feMerge>
</filter>

</defs>
<g filter="url(#Filter_0)">
<path fill-rule="evenodd"  fill="rgb(255, 255, 255)"
 d="M82.033,40.873 L75.752,40.873 C74.018,40.873 72.612,39.467 72.612,37.732 C72.612,35.998 74.018,34.592 75.752,34.592 L82.033,34.592 C83.768,34.592 85.174,35.998 85.174,37.732 C85.174,39.467 83.768,40.873 82.033,40.873 ZM69.694,19.966 C68.468,21.193 66.479,21.193 65.253,19.966 C64.027,18.740 64.027,16.751 65.253,15.525 L69.694,11.084 C70.921,9.857 72.909,9.857 74.136,11.084 C75.362,12.310 75.362,14.299 74.136,15.525 L69.694,19.966 ZM65.066,44.477 L65.066,44.477 C67.812,47.751 69.471,51.968 69.471,56.575 C69.471,64.776 64.223,71.734 56.909,74.324 L56.909,67.443 C60.660,65.270 63.190,61.222 63.190,56.575 C63.190,49.637 57.566,44.013 50.628,44.013 C48.115,44.013 45.786,44.769 43.822,46.040 C41.888,37.690 34.442,31.451 25.503,31.451 C15.097,31.451 6.660,39.887 6.660,50.294 C6.660,55.868 9.094,60.861 12.941,64.311 L12.941,72.030 C5.439,67.684 0.379,59.588 0.379,50.294 C0.379,36.418 11.628,25.170 25.503,25.170 C27.973,25.170 30.355,25.535 32.608,26.199 C36.055,21.758 41.430,18.889 47.487,18.889 C57.894,18.889 66.331,27.325 66.331,37.732 C66.331,40.112 65.871,42.380 65.066,44.477 ZM47.487,25.170 C44.013,25.170 40.868,26.581 38.594,28.861 C42.270,31.114 45.325,34.282 47.435,38.054 C48.478,37.875 49.534,37.732 50.628,37.732 C53.966,37.732 57.095,38.608 59.815,40.131 L59.815,40.131 C59.965,39.354 60.050,38.553 60.050,37.732 C60.050,30.794 54.425,25.170 47.487,25.170 ZM47.487,12.608 C45.753,12.608 44.347,11.202 44.347,9.467 L44.347,3.186 C44.347,1.452 45.753,0.045 47.487,0.045 C49.222,0.045 50.628,1.452 50.628,3.186 L50.628,9.467 C50.628,11.202 49.222,12.608 47.487,12.608 ZM25.280,19.966 L20.839,15.525 C19.612,14.299 19.612,12.310 20.839,11.084 C22.065,9.857 24.054,9.857 25.280,11.084 L29.722,15.525 C30.948,16.751 30.948,18.740 29.722,19.966 C28.495,21.193 26.507,21.193 25.280,19.966 ZM22.363,62.857 C24.097,62.857 25.503,64.263 25.503,65.997 C25.503,67.732 24.097,69.138 22.363,69.138 C20.628,69.138 19.222,67.732 19.222,65.997 C19.222,64.263 20.628,62.857 22.363,62.857 ZM22.363,75.419 C24.097,75.419 25.503,76.825 25.503,78.559 C25.503,80.294 24.097,81.700 22.363,81.700 C20.628,81.700 19.222,80.294 19.222,78.559 C19.222,76.825 20.628,75.419 22.363,75.419 ZM34.925,69.138 C36.660,69.138 38.066,70.544 38.066,72.278 C38.066,74.013 36.660,75.419 34.925,75.419 C33.191,75.419 31.785,74.013 31.785,72.278 C31.785,70.544 33.191,69.138 34.925,69.138 ZM34.925,81.700 C36.660,81.700 38.066,83.106 38.066,84.840 C38.066,86.575 36.660,87.981 34.925,87.981 C33.191,87.981 31.785,86.575 31.785,84.840 C31.785,83.106 33.191,81.700 34.925,81.700 ZM47.487,62.857 C49.222,62.857 50.628,64.263 50.628,65.997 C50.628,67.732 49.222,69.138 47.487,69.138 C45.753,69.138 44.347,67.732 44.347,65.997 C44.347,64.263 45.753,62.857 47.487,62.857 ZM47.487,75.419 C49.222,75.419 50.628,76.825 50.628,78.559 C50.628,80.294 49.222,81.700 47.487,81.700 C45.753,81.700 44.347,80.294 44.347,78.559 C44.347,76.825 45.753,75.419 47.487,75.419 Z"/>
</g>
</svg>